<svg width="256" height="256" viewBox="0 0 256 256" fill="none" xmlns="http://www.w3.org/2000/svg">
    <g clip-path="url(#clip0_404_797)">
        <rect width="256" height="256" fill="#111111"/>
        <rect width="256" height="256" fill="#111111"/>
        <path d="M79.0539 154V126.28C79.0539 120.88 80.0139 116.68 82.0539 113.8C83.9739 110.92 86.6139 109.84 88.7739 109.84C91.0539 109.84 92.8539 111.28 92.8539 115.24C92.8539 121.72 92.7339 126.4 92.7339 132.28C92.7339 141.28 92.8539 147.52 92.8539 154H119.614V114.28C119.614 109.24 119.374 106.36 118.654 104.2C116.014 96.4 108.214 93.28 99.8139 93.28C91.1739 93.28 83.1339 96.28 78.8139 103.6H78.3339V94H52.0539L52.1739 154H79.0539ZM158.707 154.72C167.947 154.72 174.547 152.2 178.627 146.2H179.107V154H204.907V70H178.027V98.92H177.547C174.787 94.72 169.027 93.28 161.347 93.28H156.427C141.307 93.28 134.227 101.2 134.827 118.48C134.827 119.8 134.947 121.84 134.947 124.12C134.947 126.76 134.827 129.88 134.827 132.52C134.827 147.88 145.387 154.72 158.707 154.72ZM168.907 140.44C163.987 140.44 162.187 136.84 162.187 131.08V116.92C162.187 110.92 163.867 108.04 168.907 108.04C174.427 108.04 178.627 114.4 178.627 122.56V125.92C178.627 134.08 174.427 140.44 168.907 140.44Z" fill="white"/>
    </g>
    <defs>
        <clipPath id="clip0_404_797">
            <rect width="256" height="256" fill="white"/>
        </clipPath>
    </defs>
</svg>
