<svg xmlns="http://www.w3.org/2000/svg" width="256" height="256" fill="#111">
    <g clip-path="url(#a)">
        <path fill="#fff"
              d="M65.584 166v-35.574c0-6.93 1.232-12.32 3.85-16.016 2.464-3.696 5.852-5.082 8.624-5.082 2.926 0 5.236 1.848 5.236 6.93 0 8.316-.154 14.322-.154 21.868 0 11.55.154 19.558.154 27.874h34.342v-50.974c0-6.468-.308-10.164-1.232-12.936-3.388-10.01-13.398-14.014-24.178-14.014-11.088 0-21.406 3.85-26.95 13.244h-.616V89H30.934l.154 77h34.496Zm99.141.924c11.858 0 20.328-3.234 25.564-10.934h.616V166h33.11V58.2h-34.496v37.114h-.616c-3.542-5.39-10.934-7.238-20.79-7.238h-6.314c-19.404 0-28.49 10.164-27.72 32.34 0 1.694.154 4.312.154 7.238 0 3.388-.154 7.392-.154 10.78 0 19.712 13.552 28.49 30.646 28.49Zm13.09-18.326c-6.314 0-8.624-4.62-8.624-12.012v-18.172c0-7.7 2.156-11.396 8.624-11.396 7.084 0 12.474 8.162 12.474 18.634v4.312c0 10.472-5.39 18.634-12.474 18.634Z"/>
    </g>
    <defs>
        <clipPath id="a">
            <path fill="#111" d="M0 0h256v256H0z"/>
        </clipPath>
    </defs>
</svg>
