<svg width="256" height="256" viewBox="0 0 256 256" fill="none" xmlns="http://www.w3.org/2000/svg">
<g clip-path="url(#clip0_846_34)">
<rect width="256" height="256" rx="4" fill="white"/>
<rect width="256" height="256" fill="white"/>
<path d="M128 228C72.8247 228 28 183.092 28 128C28 72.9082 72.8247 28 128 28C183.175 28 228 72.8247 228 128C228 183.175 183.175 228 128 228ZM128 43.4424C82.0901 43.4424 44.6945 82.0901 44.6945 128C44.6945 173.91 82.0901 212.558 128 212.558C173.91 212.558 211.306 173.91 211.306 128C211.306 82.0901 173.91 43.4424 128 43.4424Z" fill="black"/>
<path d="M146.281 137.68L145.279 141.687C142.691 151.704 138.434 156.128 131.005 156.128C127.082 156.128 123.409 154.542 121.072 151.787C119.152 149.45 118.317 146.278 118.317 140.268V118.565C118.317 112.305 118.902 108.382 120.905 105.46C123.075 102.538 126.164 100.786 130.838 100.786C140.771 100.786 142.608 107.63 145.112 117.23L145.362 118.231H182.424L181.84 112.138C179.503 87.096 170.154 77.9141 139.352 77.9141H117.483C88.5176 77.9141 73.2422 85.9274 73.2422 111.971V143.44C73.2422 169.817 87.6829 178.081 116.898 178.081H138.852C168.818 178.081 179.753 169.483 181.84 145.443L182.591 137.764H146.281V137.68Z" fill="black"/>
</g>
<defs>
<clipPath id="clip0_846_34">
<rect width="256" height="256" rx="4" fill="white"/>
</clipPath>
</defs>
</svg>
